<?xml version="1.0" encoding="utf-8"?>
<!-- Generator: Adobe Illustrator 19.0.0, SVG Export Plug-In . SVG Version: 6.00 Build 0)  -->
<svg version="1.1" id="Layer_1" xmlns="http://www.w3.org/2000/svg" xmlns:xlink="http://www.w3.org/1999/xlink" x="0px" y="0px"
	 viewBox="14 77 640 640" style="enable-background:new 14 77 640 640;" xml:space="preserve">
<style type="text/css">
	.st0{fill:#1B9388;}
</style>
<path class="st0" d="M358,247.6c18.9-9,32-28.3,32-50.6c0-30.9-25.1-56-56-56s-56,25.1-56,56c0,22.3,13.1,41.6,32,50.6v98.8
	c-2.8,1.3-5.5,2.9-8,4.7l-80.1-45.8c1.6-20.8-8.6-41.6-27.9-52.8c-26.8-15.5-61-6.3-76.5,20.5s-6.3,61,20.5,76.5
	c1.3,0.8,2.6,1.5,4,2.1v90.8c-1.3,0.6-2.7,1.3-4,2.1c-26.8,15.5-36,49.7-20.5,76.5s49.7,36,76.5,20.5c19.3-11.1,29.4-32,27.8-52.8
	l50.5-28.9c-11.5-11.2-19.9-25.6-23.8-41.7l-50.5,29c-2.6-1.8-5.2-3.3-8-4.7v-90.8c2.8-1.3,5.5-2.9,8-4.7l80.1,45.8
	c-0.1,1.4-0.2,2.8-0.2,4.3c0,22.3,13.1,41.6,32,50.6v98.8c-18.9,9-32,28.3-32,50.6c0,30.9,25.1,56,56,56s56-25.1,56-56
	c0-22.3-13.1-41.6-32-50.6v-98.8c2.8-1.3,5.5-2.9,8-4.7l80.1,45.8c-1.6,20.8,8.6,41.6,27.8,52.8c26.8,15.5,61,6.3,76.5-20.5
	s6.3-61-20.5-76.5c-1.3-0.8-2.7-1.5-4-2.1v-90.8c1.4-0.6,2.7-1.3,4-2.1c26.8-15.5,36-49.7,20.5-76.5s-49.5-36-76.3-20.5
	c-19.3,11.1-29.4,32-27.8,52.8l-50.6,28.9c11.5,11.2,19.9,25.6,23.8,41.7l50.6-29c2.6,1.8,5.2,3.3,8,4.7v90.8
	c-2.8,1.3-5.5,2.9-8,4.6l-80.1-45.8c0.1-1.4,0.2-2.8,0.2-4.3c0-22.3-13.1-41.6-32-50.6v-98.8L358,247.6z"/>
</svg>
